<?xml version="1.0" encoding="UTF-8" standalone="no"?>
<svg
   xmlns:dc="http://purl.org/dc/elements/1.1/"
   xmlns:cc="http://creativecommons.org/ns#"
   xmlns:rdf="http://www.w3.org/1999/02/22-rdf-syntax-ns#"
   xmlns:svg="http://www.w3.org/2000/svg"
   xmlns="http://www.w3.org/2000/svg"
   xmlns:sodipodi="http://sodipodi.sourceforge.net/DTD/sodipodi-0.dtd"
   xmlns:inkscape="http://www.inkscape.org/namespaces/inkscape"
   sodipodi:docname="Pitchfork.svg"
   inkscape:version="1.0 (4035a4fb49, 2020-05-01)"
   id="svg8"
   version="1.1"
   viewBox="0 0 45.008084 15"
   height="15mm"
   width="45.008083mm">
  <defs
     id="defs2" />
  <sodipodi:namedview
     inkscape:window-maximized="1"
     inkscape:window-y="-8"
     inkscape:window-x="-8"
     inkscape:window-height="705"
     inkscape:window-width="1366"
     fit-margin-bottom="0"
     fit-margin-right="0"
     fit-margin-left="0"
     fit-margin-top="0"
     showgrid="false"
     inkscape:document-rotation="0"
     inkscape:current-layer="g46"
     inkscape:document-units="mm"
     inkscape:cy="28.645989"
     inkscape:cx="95.205444"
     inkscape:zoom="3.959798"
     inkscape:pageshadow="2"
     inkscape:pageopacity="0.0"
     borderopacity="1.0"
     bordercolor="#666666"
     pagecolor="#ffffff"
     id="base" />
  <metadata
     id="metadata5">
    <rdf:RDF>
      <cc:Work
         rdf:about="">
        <dc:format>image/svg+xml</dc:format>
        <dc:type
           rdf:resource="http://purl.org/dc/dcmitype/StillImage" />
        <dc:title></dc:title>
      </cc:Work>
    </rdf:RDF>
  </metadata>
  <g
     transform="translate(-6.587346,-178.34875)"
     id="layer1"
     inkscape:groupmode="layer"
     inkscape:label="Layer 1">
    <g
       transform="matrix(0.26458333,0,0,0.26458333,6.192267,172.79386)"
       id="g46">
      <g
         transform="matrix(-1.8220796,1.8220796,1.8220796,1.8220796,92.979829,-67.26212)"
         id="g28">
        <path
           d="m 60.9307,11.1348 a 0.9993,0.9993 0 0 0 -0.293,-0.7071 L 53.5664,3.3564 a 1.0294,1.0294 0 0 0 -1.4141,0 l -5.6562,5.6563 a 3,3 0 0 0 0,4.2432 L 23.8687,35.8833 23.1611,35.1758 a 1.0292,1.0292 0 0 0 -1.414,0 l -2.1212,2.1219 -1.7685,-1.7684 a 3.2841,3.2841 0 0 0 -4.5957,-0.3535 l -9.8994,9.9 A 1,1 0 0 0 4.7764,46.49 l 7.7783,-7.7783 1.4141,1.4141 -7.7788,7.7785 a 1,1 0 1 0 1.4141,1.4141 L 15.3828,41.54 16.7969,42.9542 9.02,50.7324 a 1,1 0 1 0 1.4141,1.4141 l 7.7774,-7.7783 1.4149,1.4149 -7.7782,7.7774 a 1,1 0 1 0 1.414,1.4141 l 7.7778,-7.7774 1.4141,1.4141 -7.7783,7.7787 a 1,1 0 1 0 1.414,1.4141 l 7.7784,-7.7783 1.4144,1.4142 -7.7787,7.778 a 1,1 0 1 0 1.4141,1.414 l 9.9013,-9.8994 a 3.2842,3.2842 0 0 0 -0.3545,-4.5957 l -1.7684,-1.7684 2.122,-2.1212 a 1,1 0 0 0 0,-1.4141 L 28.1108,40.1257 50.7383,17.498 a 2.9987,2.9987 0 0 0 4.2422,0 l 2.8276,-2.8271 0.0015,-10e-4 9e-4,-0.0014 2.8272,-2.8267 a 0.9993,0.9993 0 0 0 0.293,-0.707 z m -33.5264,38.1836 -0.7076,0.7074 -12.7279,-12.7279 0.707,-0.7071 c 0.3769,-0.3779 1.2031,-0.2119 1.7676,0.3526 l 2.4755,2.4755 5.6563,5.6563 2.4756,2.4756 c 0.5644,0.5644 0.7292,1.3906 0.3535,1.7676 z m -2.1221,-6.3643 -4.2422,-4.2422 1.4141,-1.415 0.7051,0.7051 0.0019,0.0029 2.8282,2.8281 0.0029,0.002 0.7051,0.705 z M 26.6968,38.7114 25.2827,37.2974 47.91,14.67 49.324,16.0841 Z M 53.5654,16.084 a 1.0224,1.0224 0 0 1 -1.4131,0 l -0.707,-0.707 -2.8281,-2.8282 -0.707,-0.707 a 1,1 0 0 1 0,-1.4141 l 2.1214,-2.1217 5.6563,5.6563 z m 3.5368,-3.5355 -5.6568,-5.6568 1.414,-1.4142 5.6572,5.6573 z"
           id="path26" />
      </g>
      <text
         x="0"
         y="79"
         fill="#000000"
         font-size="5px"
         font-weight="bold"
         font-family="'Helvetica Neue', Helvetica, Arial-Unicode, Arial, Sans-serif"
         id="text30" />
      <text
         x="0"
         y="84"
         fill="#000000"
         font-size="5px"
         font-weight="bold"
         font-family="'Helvetica Neue', Helvetica, Arial-Unicode, Arial, Sans-serif"
         id="text32" />
    </g>
  </g>
</svg>
