  0
SECTION
  2
HEADER
  9
$ACADVER
  1
AC1014
  9
$HANDSEED
  5
FFFF
  9
$MEASUREMENT
 70
     1
  0
ENDSEC
  0
SECTION
  2
TABLES
  0
TABLE
  2
VPORT
  5
8
330
0
100
AcDbSymbolTable
 70
     4
  0
VPORT
  5
2E
330
8
100
AcDbSymbolTableRecord
100
AcDbViewportTableRecord
  2
*ACTIVE
 70
     0
 10
0.0
 20
0.0
 11
1.0
 21
1.0
 12
210.0
 22
148.5
 13
0.0
 23
0.0
 14
10.0
 24
10.0
 15
10.0
 25
10.0
 16
0.0
 26
0.0
 36
1.0
 17
0.0
 27
0.0
 37
0.0
 40
341.0
 41
1.24
 42
50.0
 43
0.0
 44
0.0
 50
0.0
 51
0.0
 71
     0
 72
   100
 73
     1
 74
     3
 75
     0
 76
     0
 77
     0
 78
     0
  0
ENDTAB
  0
TABLE
  2
LTYPE
  5
5
330
0
100
AcDbSymbolTable
 70
     1
  0
LTYPE
  5
14
330
5
100
AcDbSymbolTableRecord
100
AcDbLinetypeTableRecord
  2
BYBLOCK
 70
     0
  3

 72
    65
 73
     0
 40
0.0
  0
LTYPE
  5
15
330
5
100
AcDbSymbolTableRecord
100
AcDbLinetypeTableRecord
  2
BYLAYER
 70
     0
  3

 72
    65
 73
     0
 40
0.0
  0
LTYPE
  5
16
330
5
100
AcDbSymbolTableRecord
100
AcDbLinetypeTableRecord
  2
CONTINUOUS
 70
     0
  3
Solid line
 72
    65
 73
     0
 40
0.0
  0
ENDTAB
  0
TABLE
  2
LAYER
  5
2
100
AcDbSymbolTable
 70
2
  0
LAYER
  5
50
100
AcDbSymbolTableRecord
100
AcDbLayerTableRecord
  2
0
 70
0
  6
CONTINUOUS
  0
LAYER
  5
51
100
AcDbSymbolTableRecord
100
AcDbLayerTableRecord
  2
Layer_1
 70
0
  6
CONTINUOUS
  0
ENDTAB
  0
TABLE
  2
STYLE
  5
3
330
0
100
AcDbSymbolTable
 70
     1
  0
STYLE
  5
11
330
3
100
AcDbSymbolTableRecord
100
AcDbTextStyleTableRecord
  2
STANDARD
 70
     0
 40
0.0
 41
1.0
 50
0.0
 71
     0
 42
2.5
  3
txt
  4

  0
ENDTAB
  0
TABLE
  2
VIEW
  5
6
330
0
100
AcDbSymbolTable
 70
     0
  0
ENDTAB
  0
TABLE
  2
UCS
  5
7
330
0
100
AcDbSymbolTable
 70
     0
  0
ENDTAB
  0
TABLE
  2
APPID
  5
9
330
0
100
AcDbSymbolTable
 70
     2
  0
APPID
  5
12
330
9
100
AcDbSymbolTableRecord
100
AcDbRegAppTableRecord
  2
ACAD
 70
     0
  0
ENDTAB
  0
TABLE
  2
DIMSTYLE
  5
A
330
0
100
AcDbSymbolTable
 70
     1
  0
DIMSTYLE
105
27
330
A
100
AcDbSymbolTableRecord
100
AcDbDimStyleTableRecord
  2
ISO-25
 70
     0
  3

  4

  5

  6

  7

 40
1.0
 41
2.5
 42
0.625
 43
3.75
 44
1.25
 45
0.0
 46
0.0
 47
0.0
 48
0.0
140
2.5
141
2.5
142
0.0
143
0.03937007874016
144
1.0
145
0.0
146
1.0
147
0.625
 71
     0
 72
     0
 73
     0
 74
     0
 75
     0
 76
     0
 77
     1
 78
     8
170
     0
171
     3
172
     1
173
     0
174
     0
175
     0
176
     0
177
     0
178
     0
270
     2
271
     2
272
     2
273
     2
274
     3
340
11
275
     0
280
     0
281
     0
282
     0
283
     0
284
     8
285
     0
286
     0
287
     3
288
     0
  0
ENDTAB
  0
TABLE
  2
BLOCK_RECORD
  5
1
330
0
100
AcDbSymbolTable
 70
     1
  0
BLOCK_RECORD
  5
1F
330
1
100
AcDbSymbolTableRecord
100
AcDbBlockTableRecord
  2
*MODEL_SPACE
  0
BLOCK_RECORD
  5
1B
330
1
100
AcDbSymbolTableRecord
100
AcDbBlockTableRecord
  2
*PAPER_SPACE
  0
ENDTAB
  0
ENDSEC
  0
SECTION
  2
BLOCKS
  0
BLOCK
  5
20
330
1F
100
AcDbEntity
  8
0
100
AcDbBlockBegin
  2
*MODEL_SPACE
 70
     0
 10
0.0
 20
0.0
 30
0.0
  3
*MODEL_SPACE
  1

  0
ENDBLK
  5
21
330
1F
100
AcDbEntity
  8
0
100
AcDbBlockEnd
  0
BLOCK
  5
1C
330
1B
100
AcDbEntity
 67
     1
  8
0
100
AcDbBlockBegin
  2
*PAPER_SPACE
  1

  0
ENDBLK
  5
1D
330
1B
100
AcDbEntity
 67
     1
  8
0
100
AcDbBlockEnd
  0
ENDSEC
  0
SECTION
  2
ENTITIES
  0
SPLINE
  5
100
100
AcDbEntity
  8
Layer_1
 62
7
100
AcDbSpline
 70
8
 71
3
 72
8
 73
4
 74
0
 40
0
 40
0
 40
0
 40
0
 40
1
 40
1
 40
1
 40
1
 10
0.199620
 20
3.609251
 30
0.0
 10
0.071725
 20
3.737101
 30
0.0
 10
-0.000094
 20
3.910552
 30
0.0
 10
-0.000014
 20
4.091391
 30
0.0
  0
LINE
  5
101
100
AcDbEntity
  8
Layer_1
 62
7
100
AcDbLine
 10
-0.000014
 20
4.091391
 30
0.0
 11
-0.000014
 21
10.909416
 31
0.0
  0
SPLINE
  5
102
100
AcDbEntity
  8
Layer_1
 62
7
100
AcDbSpline
 70
8
 71
3
 72
8
 73
4
 74
0
 40
0
 40
0
 40
0
 40
0
 40
1
 40
1
 40
1
 40
1
 10
-0.000014
 20
10.909416
 30
0.0
 10
0.010497
 20
11.281482
 30
0.0
 10
0.309645
 20
11.580631
 30
0.0
 10
0.681711
 20
11.591142
 30
0.0
  0
LINE
  5
103
100
AcDbEntity
  8
Layer_1
 62
7
100
AcDbLine
 10
0.681711
 20
11.591142
 30
0.0
 11
6.135370
 21
11.591094
 31
0.0
  0
SPLINE
  5
104
100
AcDbEntity
  8
Layer_1
 62
7
100
AcDbSpline
 70
8
 71
3
 72
8
 73
4
 74
0
 40
0
 40
0
 40
0
 40
0
 40
1
 40
1
 40
1
 40
1
 10
6.135370
 20
11.591094
 30
0.0
 10
6.677921
 20
11.591165
 30
0.0
 10
7.198272
 20
11.375669
 30
0.0
 10
7.581914
 20
10.992027
 30
0.0
  0
SPLINE
  5
105
100
AcDbEntity
  8
Layer_1
 62
7
100
AcDbSpline
 70
8
 71
3
 72
8
 73
4
 74
0
 40
0
 40
0
 40
0
 40
0
 40
1
 40
1
 40
1
 40
1
 10
7.581914
 20
10.992027
 30
0.0
 10
7.965556
 20
10.608385
 30
0.0
 10
8.181052
 20
10.088035
 30
0.0
 10
8.180980
 20
9.545483
 30
0.0
  0
LINE
  5
106
100
AcDbEntity
  8
Layer_1
 62
7
100
AcDbLine
 10
8.180980
 20
9.545483
 30
0.0
 11
29.997930
 21
9.545483
 31
0.0
  0
LINE
  5
107
100
AcDbEntity
  8
Layer_1
 62
7
100
AcDbLine
 10
29.997930
 20
9.545483
 30
0.0
 11
29.997978
 21
10.227691
 31
0.0
  0
SPLINE
  5
108
100
AcDbEntity
  8
Layer_1
 62
7
100
AcDbSpline
 70
8
 71
3
 72
8
 73
4
 74
0
 40
0
 40
0
 40
0
 40
0
 40
1
 40
1
 40
1
 40
1
 10
29.997978
 20
10.227691
 30
0.0
 10
30.008445
 20
10.599749
 30
0.0
 10
30.307597
 20
10.898901
 30
0.0
 10
30.679655
 20
10.909368
 30
0.0
  0
LINE
  5
109
100
AcDbEntity
  8
Layer_1
 62
7
100
AcDbLine
 10
30.679655
 20
10.909368
 30
0.0
 11
32.725217
 21
10.909031
 31
0.0
  0
LINE
  5
10a
100
AcDbEntity
  8
Layer_1
 62
7
100
AcDbLine
 10
32.725217
 20
10.909031
 30
0.0
 11
32.725265
 21
12.614140
 31
0.0
  0
SPLINE
  5
10b
100
AcDbEntity
  8
Layer_1
 62
7
100
AcDbSpline
 70
8
 71
3
 72
8
 73
4
 74
0
 40
0
 40
0
 40
0
 40
0
 40
1
 40
1
 40
1
 40
1
 10
32.725265
 20
12.614140
 30
0.0
 10
32.640635
 20
13.834631
 30
0.0
 10
33.551317
 20
14.897086
 30
0.0
 10
34.770393
 20
15.000106
 30
0.0
  0
LINE
  5
10c
100
AcDbEntity
  8
Layer_1
 62
7
100
AcDbLine
 10
34.770393
 20
15.000106
 30
0.0
 11
44.315514
 21
14.999817
 31
0.0
  0
SPLINE
  5
10d
100
AcDbEntity
  8
Layer_1
 62
7
100
AcDbSpline
 70
8
 71
3
 72
8
 73
4
 74
0
 40
0
 40
0
 40
0
 40
0
 40
1
 40
1
 40
1
 40
1
 10
44.315514
 20
14.999817
 30
0.0
 10
44.689512
 20
14.996284
 30
0.0
 10
44.990841
 20
14.692106
 30
0.0
 10
44.990854
 20
14.318091
 30
0.0
  0
SPLINE
  5
10e
100
AcDbEntity
  8
Layer_1
 62
7
100
AcDbSpline
 70
8
 71
3
 72
8
 73
4
 74
0
 40
0
 40
0
 40
0
 40
0
 40
1
 40
1
 40
1
 40
1
 10
44.990854
 20
14.318091
 30
0.0
 10
44.990867
 20
13.944077
 30
0.0
 10
44.689560
 20
13.639877
 30
0.0
 10
44.315562
 20
13.636318
 30
0.0
  0
LINE
  5
10f
100
AcDbEntity
  8
Layer_1
 62
7
100
AcDbLine
 10
44.315562
 20
13.636318
 30
0.0
 11
36.815859
 21
13.636318
 31
0.0
  0
LINE
  5
110
100
AcDbEntity
  8
Layer_1
 62
7
100
AcDbLine
 10
36.815859
 20
13.636318
 30
0.0
 11
36.815859
 21
12.272867
 31
0.0
  0
LINE
  5
111
100
AcDbEntity
  8
Layer_1
 62
7
100
AcDbLine
 10
36.815859
 20
12.272867
 30
0.0
 11
44.315899
 21
12.273012
 31
0.0
  0
SPLINE
  5
112
100
AcDbEntity
  8
Layer_1
 62
7
100
AcDbSpline
 70
8
 71
3
 72
8
 73
4
 74
0
 40
0
 40
0
 40
0
 40
0
 40
1
 40
1
 40
1
 40
1
 10
44.315899
 20
12.273012
 30
0.0
 10
44.561515
 20
12.276125
 30
0.0
 10
44.789818
 20
12.146874
 30
0.0
 10
44.913533
 20
11.934668
 30
0.0
  0
SPLINE
  5
113
100
AcDbEntity
  8
Layer_1
 62
7
100
AcDbSpline
 70
8
 71
3
 72
8
 73
4
 74
0
 40
0
 40
0
 40
0
 40
0
 40
1
 40
1
 40
1
 40
1
 10
44.913533
 20
11.934668
 30
0.0
 10
45.037248
 20
11.722462
 30
0.0
 10
45.037248
 20
11.460111
 30
0.0
 10
44.913533
 20
11.247905
 30
0.0
  0
SPLINE
  5
114
100
AcDbEntity
  8
Layer_1
 62
7
100
AcDbSpline
 70
8
 71
3
 72
8
 73
4
 74
0
 40
0
 40
0
 40
0
 40
0
 40
1
 40
1
 40
1
 40
1
 10
44.913533
 20
11.247905
 30
0.0
 10
44.789818
 20
11.035699
 30
0.0
 10
44.561515
 20
10.906448
 30
0.0
 10
44.315899
 20
10.909561
 30
0.0
  0
LINE
  5
115
100
AcDbEntity
  8
Layer_1
 62
7
100
AcDbLine
 10
44.315899
 20
10.909561
 30
0.0
 11
36.815955
 21
10.909416
 31
0.0
  0
LINE
  5
116
100
AcDbEntity
  8
Layer_1
 62
7
100
AcDbLine
 10
36.815955
 20
10.909416
 30
0.0
 11
36.816004
 21
9.545917
 31
0.0
  0
LINE
  5
117
100
AcDbEntity
  8
Layer_1
 62
7
100
AcDbLine
 10
36.816004
 20
9.545917
 30
0.0
 11
44.314983
 21
9.545290
 31
0.0
  0
SPLINE
  5
118
100
AcDbEntity
  8
Layer_1
 62
7
100
AcDbSpline
 70
8
 71
3
 72
8
 73
4
 74
0
 40
0
 40
0
 40
0
 40
0
 40
1
 40
1
 40
1
 40
1
 10
44.314983
 20
9.545290
 30
0.0
 10
44.560599
 20
9.548403
 30
0.0
 10
44.788902
 20
9.419152
 30
0.0
 10
44.912617
 20
9.206946
 30
0.0
  0
SPLINE
  5
119
100
AcDbEntity
  8
Layer_1
 62
7
100
AcDbSpline
 70
8
 71
3
 72
8
 73
4
 74
0
 40
0
 40
0
 40
0
 40
0
 40
1
 40
1
 40
1
 40
1
 10
44.912617
 20
9.206946
 30
0.0
 10
45.036332
 20
8.994740
 30
0.0
 10
45.036332
 20
8.732390
 30
0.0
 10
44.912617
 20
8.520184
 30
0.0
  0
SPLINE
  5
11a
100
AcDbEntity
  8
Layer_1
 62
7
100
AcDbSpline
 70
8
 71
3
 72
8
 73
4
 74
0
 40
0
 40
0
 40
0
 40
0
 40
1
 40
1
 40
1
 40
1
 10
44.912617
 20
8.520184
 30
0.0
 10
44.788902
 20
8.307978
 30
0.0
 10
44.560599
 20
8.178727
 30
0.0
 10
44.314983
 20
8.181840
 30
0.0
  0
LINE
  5
11b
100
AcDbEntity
  8
Layer_1
 62
7
100
AcDbLine
 10
44.314983
 20
8.181840
 30
0.0
 11
36.815714
 21
8.182273
 31
0.0
  0
LINE
  5
11c
100
AcDbEntity
  8
Layer_1
 62
7
100
AcDbLine
 10
36.815714
 20
8.182273
 30
0.0
 11
36.815714
 21
6.818051
 31
0.0
  0
LINE
  5
11d
100
AcDbEntity
  8
Layer_1
 62
7
100
AcDbLine
 10
36.815714
 20
6.818051
 30
0.0
 11
44.314935
 21
6.818437
 31
0.0
  0
SPLINE
  5
11e
100
AcDbEntity
  8
Layer_1
 62
7
100
AcDbSpline
 70
8
 71
3
 72
8
 73
4
 74
0
 40
0
 40
0
 40
0
 40
0
 40
1
 40
1
 40
1
 40
1
 10
44.314935
 20
6.818437
 30
0.0
 10
44.560955
 20
6.822188
 30
0.0
 10
44.789909
 20
6.693089
 30
0.0
 10
44.914019
 20
6.480636
 30
0.0
  0
SPLINE
  5
11f
100
AcDbEntity
  8
Layer_1
 62
7
100
AcDbSpline
 70
8
 71
3
 72
8
 73
4
 74
0
 40
0
 40
0
 40
0
 40
0
 40
1
 40
1
 40
1
 40
1
 10
44.914019
 20
6.480636
 30
0.0
 10
45.038129
 20
6.268183
 30
0.0
 10
45.038139
 20
6.005340
 30
0.0
 10
44.914043
 20
5.792878
 30
0.0
  0
SPLINE
  5
120
100
AcDbEntity
  8
Layer_1
 62
7
100
AcDbSpline
 70
8
 71
3
 72
8
 73
4
 74
0
 40
0
 40
0
 40
0
 40
0
 40
1
 40
1
 40
1
 40
1
 10
44.914043
 20
5.792878
 30
0.0
 10
44.789948
 20
5.580416
 30
0.0
 10
44.561003
 20
5.451301
 30
0.0
 10
44.314983
 20
5.455034
 30
0.0
  0
LINE
  5
121
100
AcDbEntity
  8
Layer_1
 62
7
100
AcDbLine
 10
44.314983
 20
5.455034
 30
0.0
 11
36.815955
 21
5.454841
 31
0.0
  0
LINE
  5
122
100
AcDbEntity
  8
Layer_1
 62
7
100
AcDbLine
 10
36.815955
 20
5.454841
 30
0.0
 11
36.815955
 21
4.091391
 31
0.0
  0
LINE
  5
123
100
AcDbEntity
  8
Layer_1
 62
7
100
AcDbLine
 10
36.815955
 20
4.091391
 30
0.0
 11
44.315851
 21
4.091198
 31
0.0
  0
SPLINE
  5
124
100
AcDbEntity
  8
Layer_1
 62
7
100
AcDbSpline
 70
8
 71
3
 72
8
 73
4
 74
0
 40
0
 40
0
 40
0
 40
0
 40
1
 40
1
 40
1
 40
1
 10
44.315851
 20
4.091198
 30
0.0
 10
44.561871
 20
4.094948
 30
0.0
 10
44.790825
 20
3.965850
 30
0.0
 10
44.914935
 20
3.753397
 30
0.0
  0
SPLINE
  5
125
100
AcDbEntity
  8
Layer_1
 62
7
100
AcDbSpline
 70
8
 71
3
 72
8
 73
4
 74
0
 40
0
 40
0
 40
0
 40
0
 40
1
 40
1
 40
1
 40
1
 10
44.914935
 20
3.753397
 30
0.0
 10
45.039045
 20
3.540944
 30
0.0
 10
45.039055
 20
3.278100
 30
0.0
 10
44.914959
 20
3.065639
 30
0.0
  0
SPLINE
  5
126
100
AcDbEntity
  8
Layer_1
 62
7
100
AcDbSpline
 70
8
 71
3
 72
8
 73
4
 74
0
 40
0
 40
0
 40
0
 40
0
 40
1
 40
1
 40
1
 40
1
 10
44.914959
 20
3.065639
 30
0.0
 10
44.790864
 20
2.853177
 30
0.0
 10
44.561919
 20
2.724062
 30
0.0
 10
44.315899
 20
2.727795
 30
0.0
  0
LINE
  5
127
100
AcDbEntity
  8
Layer_1
 62
7
100
AcDbLine
 10
44.315899
 20
2.727795
 30
0.0
 11
36.816148
 21
2.727747
 31
0.0
  0
LINE
  5
128
100
AcDbEntity
  8
Layer_1
 62
7
100
AcDbLine
 10
36.816148
 20
2.727747
 30
0.0
 11
36.816052
 21
1.364103
 31
0.0
  0
LINE
  5
129
100
AcDbEntity
  8
Layer_1
 62
7
100
AcDbLine
 10
36.816052
 20
1.364103
 30
0.0
 11
44.315803
 21
1.364441
 31
0.0
  0
SPLINE
  5
12a
100
AcDbEntity
  8
Layer_1
 62
7
100
AcDbSpline
 70
8
 71
3
 72
8
 73
4
 74
0
 40
0
 40
0
 40
0
 40
0
 40
1
 40
1
 40
1
 40
1
 10
44.315803
 20
1.364441
 30
0.0
 10
44.561823
 20
1.368174
 30
0.0
 10
44.790768
 20
1.239059
 30
0.0
 10
44.914863
 20
1.026597
 30
0.0
  0
SPLINE
  5
12b
100
AcDbEntity
  8
Layer_1
 62
7
100
AcDbSpline
 70
8
 71
3
 72
8
 73
4
 74
0
 40
0
 40
0
 40
0
 40
0
 40
1
 40
1
 40
1
 40
1
 10
44.914863
 20
1.026597
 30
0.0
 10
45.038958
 20
0.814135
 30
0.0
 10
45.038949
 20
0.551292
 30
0.0
 10
44.914839
 20
0.338839
 30
0.0
  0
SPLINE
  5
12c
100
AcDbEntity
  8
Layer_1
 62
7
100
AcDbSpline
 70
8
 71
3
 72
8
 73
4
 74
0
 40
0
 40
0
 40
0
 40
0
 40
1
 40
1
 40
1
 40
1
 10
44.914839
 20
0.338839
 30
0.0
 10
44.790729
 20
0.126386
 30
0.0
 10
44.561774
 20
-0.002713
 30
0.0
 10
44.315755
 20
0.001038
 30
0.0
  0
LINE
  5
12d
100
AcDbEntity
  8
Layer_1
 62
7
100
AcDbLine
 10
44.315755
 20
0.001038
 30
0.0
 11
34.770008
 21
0.000122
 31
0.0
  0
SPLINE
  5
12e
100
AcDbEntity
  8
Layer_1
 62
7
100
AcDbSpline
 70
8
 71
3
 72
8
 73
4
 74
0
 40
0
 40
0
 40
0
 40
0
 40
1
 40
1
 40
1
 40
1
 10
34.770008
 20
0.000122
 30
0.0
 10
33.550941
 20
0.103424
 30
0.0
 10
32.640483
 20
1.166083
 30
0.0
 10
32.725362
 20
2.386571
 30
0.0
  0
LINE
  5
12f
100
AcDbEntity
  8
Layer_1
 62
7
100
AcDbLine
 10
32.725362
 20
2.386571
 30
0.0
 11
32.725362
 21
4.091632
 31
0.0
  0
LINE
  5
130
100
AcDbEntity
  8
Layer_1
 62
7
100
AcDbLine
 10
32.725362
 20
4.091632
 30
0.0
 11
30.679752
 21
4.091246
 31
0.0
  0
SPLINE
  5
131
100
AcDbEntity
  8
Layer_1
 62
7
100
AcDbSpline
 70
8
 71
3
 72
8
 73
4
 74
0
 40
0
 40
0
 40
0
 40
0
 40
1
 40
1
 40
1
 40
1
 10
30.679752
 20
4.091246
 30
0.0
 10
30.303257
 20
4.091276
 30
0.0
 10
29.998056
 20
4.396477
 30
0.0
 10
29.998026
 20
4.772971
 30
0.0
  0
LINE
  5
132
100
AcDbEntity
  8
Layer_1
 62
7
100
AcDbLine
 10
29.998026
 20
4.772971
 30
0.0
 11
29.998074
 21
5.455179
 31
0.0
  0
LINE
  5
133
100
AcDbEntity
  8
Layer_1
 62
7
100
AcDbLine
 10
29.998074
 20
5.455179
 30
0.0
 11
8.180932
 21
5.455275
 31
0.0
  0
SPLINE
  5
134
100
AcDbEntity
  8
Layer_1
 62
7
100
AcDbSpline
 70
8
 71
3
 72
8
 73
4
 74
0
 40
0
 40
0
 40
0
 40
0
 40
1
 40
1
 40
1
 40
1
 10
8.180932
 20
5.455275
 30
0.0
 10
8.181111
 20
4.912819
 30
0.0
 10
7.965700
 20
4.392529
 30
0.0
 10
7.582125
 20
4.008954
 30
0.0
  0
SPLINE
  5
135
100
AcDbEntity
  8
Layer_1
 62
7
100
AcDbSpline
 70
8
 71
3
 72
8
 73
4
 74
0
 40
0
 40
0
 40
0
 40
0
 40
1
 40
1
 40
1
 40
1
 10
7.582125
 20
4.008954
 30
0.0
 10
7.198551
 20
3.625379
 30
0.0
 10
6.678260
 20
3.409968
 30
0.0
 10
6.135804
 20
3.410147
 30
0.0
  0
LINE
  5
136
100
AcDbEntity
  8
Layer_1
 62
7
100
AcDbLine
 10
6.135804
 20
3.410147
 30
0.0
 11
3.409722
 21
3.409906
 31
0.0
  0
LINE
  5
137
100
AcDbEntity
  8
Layer_1
 62
7
100
AcDbLine
 10
3.409722
 20
3.409906
 30
0.0
 11
3.408516
 21
3.409665
 31
0.0
  0
LINE
  5
138
100
AcDbEntity
  8
Layer_1
 62
7
100
AcDbLine
 10
3.408516
 20
3.409665
 30
0.0
 11
3.407408
 21
3.409906
 31
0.0
  0
LINE
  5
139
100
AcDbEntity
  8
Layer_1
 62
7
100
AcDbLine
 10
3.407408
 20
3.409906
 30
0.0
 11
0.681711
 21
3.409665
 31
0.0
  0
SPLINE
  5
13a
100
AcDbEntity
  8
Layer_1
 62
7
100
AcDbSpline
 70
8
 71
3
 72
8
 73
4
 74
0
 40
0
 40
0
 40
0
 40
0
 40
1
 40
1
 40
1
 40
1
 10
0.681711
 20
3.409665
 30
0.0
 10
0.500896
 20
3.409585
 30
0.0
 10
0.327465
 20
3.481386
 30
0.0
 10
0.199620
 20
3.609251
 30
0.0
  0
LINE
  5
13b
100
AcDbEntity
  8
Layer_1
 62
7
100
AcDbLine
 10
0.199620
 20
3.609251
 30
0.0
 11
0.199620
 21
3.609251
 31
0.0
  0
LINE
  5
13c
100
AcDbEntity
  8
Layer_1
 62
7
100
AcDbLine
 10
34.770393
 20
1.364055
 30
0.0
 11
35.452553
 21
1.364151
 31
0.0
  0
LINE
  5
13d
100
AcDbEntity
  8
Layer_1
 62
7
100
AcDbLine
 10
35.452553
 20
1.364151
 30
0.0
 11
35.452553
 21
13.636173
 31
0.0
  0
LINE
  5
13e
100
AcDbEntity
  8
Layer_1
 62
7
100
AcDbLine
 10
35.452553
 20
13.636173
 30
0.0
 11
34.770827
 21
13.636222
 31
0.0
  0
SPLINE
  5
13f
100
AcDbEntity
  8
Layer_1
 62
7
100
AcDbSpline
 70
8
 71
3
 72
8
 73
4
 74
0
 40
0
 40
0
 40
0
 40
0
 40
1
 40
1
 40
1
 40
1
 10
34.770827
 20
13.636222
 30
0.0
 10
34.406945
 20
13.636704
 30
0.0
 10
34.088668
 20
13.158373
 30
0.0
 10
34.088668
 20
12.614091
 30
0.0
  0
LINE
  5
140
100
AcDbEntity
  8
Layer_1
 62
7
100
AcDbLine
 10
34.088668
 20
12.614091
 30
0.0
 11
34.088668
 21
10.227257
 31
0.0
  0
LINE
  5
141
100
AcDbEntity
  8
Layer_1
 62
7
100
AcDbLine
 10
34.088668
 20
10.227257
 30
0.0
 11
34.088668
 21
4.773550
 31
0.0
  0
LINE
  5
142
100
AcDbEntity
  8
Layer_1
 62
7
100
AcDbLine
 10
34.088668
 20
4.773550
 30
0.0
 11
34.088668
 21
2.386619
 31
0.0
  0
SPLINE
  5
143
100
AcDbEntity
  8
Layer_1
 62
7
100
AcDbSpline
 70
8
 71
3
 72
8
 73
4
 74
0
 40
0
 40
0
 40
0
 40
0
 40
1
 40
1
 40
1
 40
1
 10
34.088668
 20
2.386619
 30
0.0
 10
34.088668
 20
1.842434
 30
0.0
 10
34.407523
 20
1.364682
 30
0.0
 10
34.770393
 20
1.364055
 30
0.0
  0
LINE
  5
144
100
AcDbEntity
  8
Layer_1
 62
7
100
AcDbLine
 10
34.770393
 20
1.364055
 30
0.0
 11
34.770393
 21
1.364055
 31
0.0
  0
LINE
  5
145
100
AcDbEntity
  8
Layer_1
 62
7
100
AcDbLine
 10
32.725265
 20
5.455275
 30
0.0
 11
32.725265
 21
9.545532
 31
0.0
  0
LINE
  5
146
100
AcDbEntity
  8
Layer_1
 62
7
100
AcDbLine
 10
32.725265
 20
9.545532
 30
0.0
 11
31.361381
 21
9.545965
 31
0.0
  0
LINE
  5
147
100
AcDbEntity
  8
Layer_1
 62
7
100
AcDbLine
 10
31.361381
 20
9.545965
 30
0.0
 11
31.361381
 21
8.866120
 31
0.0
  0
LINE
  5
148
100
AcDbEntity
  8
Layer_1
 62
7
100
AcDbLine
 10
31.361381
 20
8.866120
 30
0.0
 11
31.361863
 21
8.863806
 31
0.0
  0
LINE
  5
149
100
AcDbEntity
  8
Layer_1
 62
7
100
AcDbLine
 10
31.361863
 20
8.863806
 30
0.0
 11
31.361814
 21
6.136953
 31
0.0
  0
LINE
  5
14a
100
AcDbEntity
  8
Layer_1
 62
7
100
AcDbLine
 10
31.361814
 20
6.136953
 30
0.0
 11
31.361381
 21
6.134590
 31
0.0
  0
LINE
  5
14b
100
AcDbEntity
  8
Layer_1
 62
7
100
AcDbLine
 10
31.361381
 20
6.134590
 30
0.0
 11
31.361332
 21
5.454793
 31
0.0
  0
LINE
  5
14c
100
AcDbEntity
  8
Layer_1
 62
7
100
AcDbLine
 10
31.361332
 20
5.454793
 30
0.0
 11
32.725265
 21
5.455275
 31
0.0
  0
LINE
  5
14d
100
AcDbEntity
  8
Layer_1
 62
7
100
AcDbLine
 10
29.997930
 20
6.818678
 30
0.0
 11
29.997978
 21
8.182081
 31
0.0
  0
LINE
  5
14e
100
AcDbEntity
  8
Layer_1
 62
7
100
AcDbLine
 10
29.997978
 20
8.182081
 30
0.0
 11
8.181077
 21
8.182129
 31
0.0
  0
LINE
  5
14f
100
AcDbEntity
  8
Layer_1
 62
7
100
AcDbLine
 10
8.181077
 20
8.182129
 30
0.0
 11
8.181125
 21
6.818726
 31
0.0
  0
LINE
  5
150
100
AcDbEntity
  8
Layer_1
 62
7
100
AcDbLine
 10
8.181125
 20
6.818726
 30
0.0
 11
29.997930
 21
6.818678
 31
0.0
  0
SPLINE
  5
151
100
AcDbEntity
  8
Layer_1
 62
7
100
AcDbSpline
 70
8
 71
3
 72
8
 73
4
 74
0
 40
0
 40
0
 40
0
 40
0
 40
1
 40
1
 40
1
 40
1
 10
6.136334
 20
4.774032
 30
0.0
 10
6.509056
 20
4.782393
 30
0.0
 10
6.809216
 20
5.082553
 30
0.0
 10
6.817577
 20
5.455275
 30
0.0
  0
LINE
  5
152
100
AcDbEntity
  8
Layer_1
 62
7
100
AcDbLine
 10
6.817577
 20
5.455275
 30
0.0
 11
6.817577
 21
6.136953
 31
0.0
  0
LINE
  5
153
100
AcDbEntity
  8
Layer_1
 62
7
100
AcDbLine
 10
6.817577
 20
6.136953
 30
0.0
 11
6.817529
 21
8.863806
 31
0.0
  0
LINE
  5
154
100
AcDbEntity
  8
Layer_1
 62
7
100
AcDbLine
 10
6.817529
 20
8.863806
 30
0.0
 11
6.817529
 21
9.545483
 31
0.0
  0
SPLINE
  5
155
100
AcDbEntity
  8
Layer_1
 62
7
100
AcDbSpline
 70
8
 71
3
 72
8
 73
4
 74
0
 40
0
 40
0
 40
0
 40
0
 40
1
 40
1
 40
1
 40
1
 10
6.817529
 20
9.545483
 30
0.0
 10
6.817499
 20
9.921977
 30
0.0
 10
6.512298
 20
10.227179
 30
0.0
 10
6.135804
 20
10.227209
 30
0.0
  0
LINE
  5
156
100
AcDbEntity
  8
Layer_1
 62
7
100
AcDbLine
 10
6.135804
 20
10.227209
 30
0.0
 11
4.090242
 21
10.227353
 31
0.0
  0
LINE
  5
157
100
AcDbEntity
  8
Layer_1
 62
7
100
AcDbLine
 10
4.090242
 20
10.227353
 30
0.0
 11
4.090242
 21
4.773646
 31
0.0
  0
LINE
  5
158
100
AcDbEntity
  8
Layer_1
 62
7
100
AcDbLine
 10
4.090242
 20
4.773646
 30
0.0
 11
6.136334
 21
4.774032
 31
0.0
  0
LINE
  5
159
100
AcDbEntity
  8
Layer_1
 62
7
100
AcDbLine
 10
2.726839
 20
4.773405
 30
0.0
 11
2.726839
 21
10.227594
 31
0.0
  0
LINE
  5
15a
100
AcDbEntity
  8
Layer_1
 62
7
100
AcDbLine
 10
2.726839
 20
10.227594
 30
0.0
 11
1.363388
 21
10.227691
 31
0.0
  0
LINE
  5
15b
100
AcDbEntity
  8
Layer_1
 62
7
100
AcDbLine
 10
1.363388
 20
10.227691
 30
0.0
 11
1.363436
 21
4.773068
 31
0.0
  0
LINE
  5
15c
100
AcDbEntity
  8
Layer_1
 62
7
100
AcDbLine
 10
1.363436
 20
4.773068
 30
0.0
 11
2.726839
 21
4.773405
 31
0.0
  0
ENDSEC
  0
SECTION
  2
OBJECTS
  0
DICTIONARY
  5
C
330
0
100
AcDbDictionary
  3
ACAD_GROUP
350
D
  3
ACAD_MLINESTYLE
350
17
  0
DICTIONARY
  5
D
330
C
100
AcDbDictionary
  0
DICTIONARY
  5
1A
330
C
100
AcDbDictionary
  0
DICTIONARY
  5
17
330
C
100
AcDbDictionary
  3
STANDARD
350
18
  0
DICTIONARY
  5
19
330
C
100
AcDbDictionary
  0
ENDSEC
  0
EOF
