0
SECTION
2
HEADER
9
$INSUNITS
70
4
9
$ACADVER
1
AC1014
9
$HANDSEED
5
FFFF
0
ENDSEC
0
SECTION
2
TABLES
0
TABLE
2
VPORT
5
8
100
AcDbSymbolTable
0
ENDTAB
0
TABLE
2
LTYPE
5
5
100
AcDbSymbolTable
0
LTYPE
5
14
100
AcDbSymbolTableRecord
100
AcDbLinetypeTableRecord
2
BYBLOCK
70
0
0
LTYPE
5
15
100
AcDbSymbolTableRecord
100
AcDbLinetypeTableRecord
2
BYLAYER
70
0
0
ENDTAB
0
TABLE
2
LAYER
5
2
100
AcDbSymbolTable
70
2
0
LAYER
5
50
100
AcDbSymbolTableRecord
100
AcDbLayerTableRecord
2
0
70
0
6
CONTINUOUS
0
ENDTAB
0
TABLE
2
STYLE
5
3
100
AcDbSymbolTable
70
1
0
STYLE
5
11
100
AcDbSymbolTableRecord
100
AcDbTextStyleTableRecord
2
STANDARD
70
0
0
ENDTAB
0
TABLE
2
VIEW
5
6
100
AcDbSymbolTable
70
0
0
ENDTAB
0
TABLE
2
UCS
5
7
100
AcDbSymbolTable
70
0
0
ENDTAB
0
TABLE
2
APPID
5
9
100
AcDbSymbolTable
70
2
0
APPID
5
12
100
AcDbSymbolTableRecord
100
AcDbRegAppTableRecord
2
ACAD
70
0
0
ENDTAB
0
TABLE
2
DIMSTYLE
5
A
100
AcDbSymbolTable
70
1
0
ENDTAB
0
TABLE
2
BLOCK_RECORD
5
1
100
AcDbSymbolTable
70
1
0
BLOCK_RECORD
5
1F
100
AcDbSymbolTableRecord
100
AcDbBlockTableRecord
2
*MODEL_SPACE
0
BLOCK_RECORD
5
1B
100
AcDbSymbolTableRecord
100
AcDbBlockTableRecord
2
*PAPER_SPACE
0
ENDTAB
0
ENDSEC
0
SECTION
2
BLOCKS
0
BLOCK
5
20
100
AcDbEntity
100
AcDbBlockBegin
2
*MODEL_SPACE
0
ENDBLK
5
21
100
AcDbEntity
100
AcDbBlockEnd
0
BLOCK
5
1C
100
AcDbEntity
100
AcDbBlockBegin
2
*PAPER_SPACE
0
ENDBLK
5
1D
100
AcDbEntity
100
AcDbBlockEnd
0
ENDSEC
0
SECTION
2
ENTITIES
0
LWPOLYLINE
5
100
100
AcDbEntity
8
0
100
AcDbPolyline
90
34
70
1
43
0.0
10
-59.249999999880359
20
96.187474520774643
42
-0.41421148187096613
10
-58.749999999892673
20
96.687470969132477
10
-29.249999999893006
20
96.687470969132477
10
-29.249999999892861
20
97.04531439260856
42
-0.44001545678670578
10
-28.706413905991258
20
97.543411022031847
10
-23.066700116312052
20
97.049999999972485
10
-23.066700116312163
20
103.99999996196402
42
-0.41421292152667244
10
-21.816702889304445
20
105.24999999996948
10
-3.8155299185374325
20
105.24999999997262
10
-2.1792231013420649
20
104.09999999997265
10
-3.8155299185374147
20
102.94999999997262
10
-20.066700116312177
20
102.94999999997252
10
-20.06670011631218
20
99.349999999972525
10
-3.8155299185374547
20
99.34999999997261
10
-2.179223101342096
20
98.199999999972647
10
-3.8155299185374814
20
97.049999999972641
10
-20.066700116312184
20
97.049999999972499
10
-20.06670011631218
20
93.449999999972675
10
-3.815529918537508
20
93.449999999972732
10
-2.1792231013421226
20
92.299999999972755
10
-3.8155299185374814
20
91.149999999972778
10
-20.06670011631218
20
91.149999999972636
10
-20.06670011631218
20
87.549999999972599
10
-3.8155299185373837
20
87.549999999972698
10
-2.1792231013420515
20
86.399999999972749
10
-3.8155299185373481
20
85.249999999972786
10
-21.816709339565303
20
85.250000000006736
42
-0.4142128941320406
10
-23.066700116295866
20
86.500006371328197
10
-23.066700116310656
20
93.449999999972675
10
-28.706427159799141
20
92.956587818312428
42
-0.44000751670548888
10
-29.249999999892985
20
93.454685607462352
10
-29.249999999892971
20
93.687470969132477
10
-58.749999948558909
20
93.687470969132448
42
-0.41421185638843711
10
-59.249999999884167
20
94.187468005498701
0
LWPOLYLINE
5
101
100
AcDbEntity
8
0
100
AcDbPolyline
90
4
70
1
43
0.0
10
-63.249999999999993
20
69.75
10
-52.75
20
69.75
10
-52.75
20
80.25
10
-63.249999999999993
20
80.25
0
LWPOLYLINE
5
102
100
AcDbEntity
8
0
100
AcDbPolyline
90
4
70
1
43
0.0
10
-63.249999999999993
20
39.75
10
-52.75
20
39.75
10
-52.75
20
50.25
10
-63.249999999999993
20
50.25
0
LWPOLYLINE
5
103
100
AcDbEntity
8
0
100
AcDbPolyline
90
4
70
1
43
0.0
10
-48.249999999999993
20
80.25
10
-48.249999999999993
20
69.75
10
-37.75
20
69.75
10
-37.75
20
80.25
0
LWPOLYLINE
5
104
100
AcDbEntity
8
0
100
AcDbPolyline
90
4
70
1
43
0.0
10
-48.249999999999993
20
39.75
10
-37.75
20
39.75
10
-37.75
20
50.25
10
-48.249999999999993
20
50.25
0
LWPOLYLINE
5
105
100
AcDbEntity
8
0
100
AcDbPolyline
90
4
70
1
43
0.0
10
-33.25
20
69.75
10
-22.75
20
69.75
10
-22.75
20
80.25
10
-33.25
20
80.25
0
LWPOLYLINE
5
106
100
AcDbEntity
8
0
100
AcDbPolyline
90
4
70
1
43
0.0
10
-33.25
20
39.75
10
-22.75
20
39.75
10
-22.75
20
50.25
10
-33.25
20
50.25
0
LWPOLYLINE
5
107
100
AcDbEntity
8
0
100
AcDbPolyline
90
4
70
1
43
0.0
10
-18.25
20
39.75
10
-7.7500000000000036
20
39.75
10
-7.7500000000000036
20
50.25
10
-18.25
20
50.25
0
LWPOLYLINE
5
108
100
AcDbEntity
8
0
100
AcDbPolyline
90
4
70
1
43
0.0
10
-18.25
20
69.75
10
-7.7500000000000036
20
69.75
10
-7.7500000000000036
20
80.25
10
-18.25
20
80.25
0
LWPOLYLINE
5
109
100
AcDbEntity
8
0
100
AcDbPolyline
90
4
70
1
43
0.0
10
-74.249999999999986
20
28.75
10
-74.249999999999986
20
110
10
10
20
110
10
10
20
28.75
0
ENDSEC
0
SECTION
2
OBJECTS
0
DICTIONARY
5
C
100
AcDbDictionary
3
ACAD_GROUP
350
D
3
ACAD_MLINESTYLE
350
17
0
DICTIONARY
5
D
100
AcDbDictionary
0
DICTIONARY
5
1A
330
C
100
AcDbDictionary
0
DICTIONARY
5
17
100
AcDbDictionary
0
ENDSEC
0
EOF
