0
SECTION
2
HEADER
9
$INSUNITS
70
1
9
$ACADVER
1
AC1014
9
$HANDSEED
5
FFFF
0
ENDSEC
0
SECTION
2
TABLES
0
TABLE
2
VPORT
5
8
100
AcDbSymbolTable
0
ENDTAB
0
TABLE
2
LTYPE
5
5
100
AcDbSymbolTable
0
LTYPE
5
14
100
AcDbSymbolTableRecord
100
AcDbLinetypeTableRecord
2
BYBLOCK
70
0
0
LTYPE
5
15
100
AcDbSymbolTableRecord
100
AcDbLinetypeTableRecord
2
BYLAYER
70
0
0
ENDTAB
0
TABLE
2
LAYER
5
2
100
AcDbSymbolTable
70
2
0
LAYER
5
50
100
AcDbSymbolTableRecord
100
AcDbLayerTableRecord
2
0
70
0
6
CONTINUOUS
0
ENDTAB
0
TABLE
2
STYLE
5
3
100
AcDbSymbolTable
70
1
0
STYLE
5
11
100
AcDbSymbolTableRecord
100
AcDbTextStyleTableRecord
2
STANDARD
70
0
0
ENDTAB
0
TABLE
2
VIEW
5
6
100
AcDbSymbolTable
70
0
0
ENDTAB
0
TABLE
2
UCS
5
7
100
AcDbSymbolTable
70
0
0
ENDTAB
0
TABLE
2
APPID
5
9
100
AcDbSymbolTable
70
2
0
APPID
5
12
100
AcDbSymbolTableRecord
100
AcDbRegAppTableRecord
2
ACAD
70
0
0
ENDTAB
0
TABLE
2
DIMSTYLE
5
A
100
AcDbSymbolTable
70
1
0
ENDTAB
0
TABLE
2
BLOCK_RECORD
5
1
100
AcDbSymbolTable
70
1
0
BLOCK_RECORD
5
1F
100
AcDbSymbolTableRecord
100
AcDbBlockTableRecord
2
*MODEL_SPACE
0
BLOCK_RECORD
5
1B
100
AcDbSymbolTableRecord
100
AcDbBlockTableRecord
2
*PAPER_SPACE
0
ENDTAB
0
ENDSEC
0
SECTION
2
BLOCKS
0
BLOCK
5
20
100
AcDbEntity
100
AcDbBlockBegin
2
*MODEL_SPACE
0
ENDBLK
5
21
100
AcDbEntity
100
AcDbBlockEnd
0
BLOCK
5
1C
100
AcDbEntity
100
AcDbBlockBegin
2
*PAPER_SPACE
0
ENDBLK
5
1D
100
AcDbEntity
100
AcDbBlockEnd
0
ENDSEC
0
SECTION
2
ENTITIES
0
LWPOLYLINE
5
100
100
AcDbEntity
8
0
100
AcDbPolyline
90
34
70
1
43
0.0
10
4.7273431302208566
20
1.2099538636607337
10
4.6051852903905264
20
1.5485944728144359
10
6.1338814501779817
20
2.100041096724222
10
6.2487810117147902
20
2.2637423207839378
10
6.0558361636197162
20
2.3163948192390809
10
4.5271400038322591
20
1.7649481953293029
10
4.404982164001936
20
2.1035888044829854
10
5.9336783237893913
20
2.6550354283927731
10
6.0485778853262007
20
2.8187366524524906
10
5.8556330372311267
20
2.8713891509076332
10
4.3269368774436687
20
2.3199425269978495
10
4.2047790376133403
20
2.6585831361515488
10
5.7334751974008027
20
3.2100297600613348
10
5.8483747589376103
20
3.3737309841210514
10
5.6554299108425363
20
3.4263834825761945
10
3.9621165274255219
20
2.8155544813200621
42
0.41421292152666939
10
3.8869491613244782
20
2.6555551103874326
10
4.1227816563738644
20
2.0017906046243787
10
3.5755288403203305
20
1.8568333144201572
42
0.44001545678670873
10
3.5412971965177751
20
1.7915335785873436
10
3.5534398019647959
20
1.7578723800018967
10
0.7784681436220201
20
0.75685674805893044
42
0.41421148187096046
10
0.74840097181133935
20
0.69285729756997816
10
0.81626665946450516
20
0.50472301294639976
42
0.41421185638846425
10
0.88026634830943251
20
0.47465624217274338
10
3.6552380018234061
20
1.4756718723738163
10
3.6631370454138912
20
1.4537744899632501
42
0.44000751670548721
10
3.7311710419793358
20
1.4253649191856008
10
4.2449394962043216
20
1.663149995470746
10
4.4807717763473107
20
1.0093860854661127
42
0.41421289413205609
10
4.6407705863926783
20
0.93421754492804032
10
6.3340845765665899
20
1.5450467650556663
10
6.4489841381033921
20
1.7087479891153758
10
6.2560392900083226
20
1.761400487570518
0
ENDSEC
0
SECTION
2
OBJECTS
0
DICTIONARY
5
C
100
AcDbDictionary
3
ACAD_GROUP
350
D
3
ACAD_MLINESTYLE
350
17
0
DICTIONARY
5
D
100
AcDbDictionary
0
DICTIONARY
5
1A
330
C
100
AcDbDictionary
0
DICTIONARY
5
17
100
AcDbDictionary
0
ENDSEC
0
EOF
