0
SECTION
2
HEADER
9
$INSUNITS
70
4
9
$ACADVER
1
AC1014
9
$HANDSEED
5
FFFF
0
ENDSEC
0
SECTION
2
TABLES
0
TABLE
2
VPORT
5
8
100
AcDbSymbolTable
0
ENDTAB
0
TABLE
2
LTYPE
5
5
100
AcDbSymbolTable
0
LTYPE
5
14
100
AcDbSymbolTableRecord
100
AcDbLinetypeTableRecord
2
BYBLOCK
70
0
0
LTYPE
5
15
100
AcDbSymbolTableRecord
100
AcDbLinetypeTableRecord
2
BYLAYER
70
0
0
ENDTAB
0
TABLE
2
LAYER
5
2
100
AcDbSymbolTable
70
2
0
LAYER
5
50
100
AcDbSymbolTableRecord
100
AcDbLayerTableRecord
2
0
70
0
6
CONTINUOUS
0
ENDTAB
0
TABLE
2
STYLE
5
3
100
AcDbSymbolTable
70
1
0
STYLE
5
11
100
AcDbSymbolTableRecord
100
AcDbTextStyleTableRecord
2
STANDARD
70
0
0
ENDTAB
0
TABLE
2
VIEW
5
6
100
AcDbSymbolTable
70
0
0
ENDTAB
0
TABLE
2
UCS
5
7
100
AcDbSymbolTable
70
0
0
ENDTAB
0
TABLE
2
APPID
5
9
100
AcDbSymbolTable
70
2
0
APPID
5
12
100
AcDbSymbolTableRecord
100
AcDbRegAppTableRecord
2
ACAD
70
0
0
ENDTAB
0
TABLE
2
DIMSTYLE
5
A
100
AcDbSymbolTable
70
1
0
ENDTAB
0
TABLE
2
BLOCK_RECORD
5
1
100
AcDbSymbolTable
70
1
0
BLOCK_RECORD
5
1F
100
AcDbSymbolTableRecord
100
AcDbBlockTableRecord
2
*MODEL_SPACE
0
BLOCK_RECORD
5
1B
100
AcDbSymbolTableRecord
100
AcDbBlockTableRecord
2
*PAPER_SPACE
0
ENDTAB
0
ENDSEC
0
SECTION
2
BLOCKS
0
BLOCK
5
20
100
AcDbEntity
100
AcDbBlockBegin
2
*MODEL_SPACE
0
ENDBLK
5
21
100
AcDbEntity
100
AcDbBlockEnd
0
BLOCK
5
1C
100
AcDbEntity
100
AcDbBlockBegin
2
*PAPER_SPACE
0
ENDBLK
5
1D
100
AcDbEntity
100
AcDbBlockEnd
0
ENDSEC
0
SECTION
2
ENTITIES
0
LWPOLYLINE
5
100
100
AcDbEntity
8
0
100
AcDbPolyline
90
6
70
1
43
0.0
10
-110
20
110
10
-69.249999999999986
20
110
10
-69.249999999999986
20
33.75
10
10.000000000000004
20
33.749999999999993
10
10
20
-9.9999999999999982
10
-110
20
-10
0
CIRCLE
5
101
100
AcDbEntity
8
0
100
AcDbCircle
10
-50
20
13
30
0
40
4.0000000000000036
210
0
220
-0
230
1
0
LWPOLYLINE
5
102
100
AcDbEntity
8
0
100
AcDbPolyline
90
4
70
1
43
0.0
10
-86
20
95
10
-86
20
35
10
-84
20
35
10
-84
20
95
0
CIRCLE
5
103
100
AcDbEntity
8
0
100
AcDbCircle
10
-83
20
12.999999999999998
30
0
40
4.0000000000000036
210
0
220
-0
230
1
0
CIRCLE
5
104
100
AcDbEntity
8
0
100
AcDbCircle
10
-17
20
13
30
0
40
3.9999999999999991
210
0
220
-0
230
1
0
LWPOLYLINE
5
105
100
AcDbEntity
8
0
100
AcDbPolyline
90
8
70
1
43
0.0
10
-93.961539864540129
20
30.292309033455727
10
-93.243589997291593
20
30.166667210640785
10
-93.243589997291593
20
34.151281821312779
10
-94.374359250068693
20
35.488461958947056
10
-99.651283621788053
20
36.412820326866978
10
-101.50000154972079
20
34.896153914513462
10
-101.50000154972079
20
30.911539303841469
10
-93.961539864540129
20
29.574359762253639
0
LWPOLYLINE
5
106
100
AcDbEntity
8
0
100
AcDbPolyline
90
10
70
1
43
0.0
10
-101.50000154972078
20
51.767949568810337
10
-101.50000154972078
20
47.783333766045445
10
-93.961539864540114
20
46.446153628411167
10
-93.961539864540129
20
47.164103495659703
10
-93.243589997291593
20
47.038461672844761
10
-93.243589997291593
20
49.730770098748081
10
-94.858976006507888
20
50.017950045647495
10
-94.858976006507888
20
51.310257422509068
10
-95.989745259284987
20
52.638461100640171
10
-99.651283621788039
20
53.284615981163853
0
LWPOLYLINE
5
107
100
AcDbEntity
8
0
100
AcDbPolyline
90
14
70
1
43
0.0
10
-101.50000154972078
20
57.744872080864774
10
-98.807693123817458
20
57.269231783928745
10
-98.807693123817458
20
57.98717926699149
10
-98.089745640754714
20
57.861539828362339
10
-98.089745640754714
20
58.391026961388462
10
-93.961539864540114
20
57.655128943505161
10
-93.961539864540114
20
58.373078810753697
10
-93.243589997291579
20
58.247436987938755
10
-93.243589997291579
20
60.939747798027867
10
-98.089745640754714
20
61.80128287035452
10
-98.089745640754714
20
62.976920115532742
10
-100.78205287456514
20
63.443591105522977
10
-100.78205287456514
20
62.725641238274441
10
-101.50000154972078
20
62.860257136406766
0
LWPOLYLINE
5
108
100
AcDbEntity
8
0
100
AcDbPolyline
90
12
70
1
43
0.0
10
-99.651283621788039
20
69.438464152397984
10
-101.50000154972078
20
67.921797740044468
10
-101.50000154972078
20
65.067951190056675
10
-100.36923229694368
20
63.730771052422391
10
-95.092309117317214
20
62.806412684502469
10
-93.243589997291579
20
64.323079096855992
10
-93.243589997291579
20
67.176925646843785
10
-94.374359250068679
20
68.514105784478062
10
-96.743591427803054
20
68.926922785820835
10
-96.743591427803054
20
68.208977686943882
10
-97.28205263614656
20
68.307692515435093
10
-97.28205263614656
20
69.025642382683628
0
LWPOLYLINE
5
109
100
AcDbEntity
8
0
100
AcDbPolyline
90
16
70
1
43
0.0
10
-101.50000154972078
20
77.452561366143087
10
-100.36923229694368
20
76.115385996880406
10
-98.32307875156404
20
75.756413447441929
10
-97.730770707130446
20
76.241023051323765
10
-97.138462662696853
20
75.55000017839896
10
-93.961539864540114
20
74.984614359917515
10
-93.961539864540114
20
75.702568995537632
10
-93.243589997291579
20
75.576922404351109
10
-93.243589997291579
20
78.269230830254429
10
-95.666667819023147
20
78.700005518975132
10
-95.666667819023147
20
80.315386759819845
10
-98.089745640754714
20
80.746151911797384
10
-98.089745640754714
20
81.553847300591329
10
-100.78205287456514
20
82.020518290581563
10
-100.78205287456514
20
81.302563654961446
10
-101.50000154972078
20
81.437184321465352
0
LWPOLYLINE
5
110
100
AcDbEntity
8
0
100
AcDbPolyline
90
10
70
1
43
0.0
10
-101.50000154972076
20
92.69102762896047
10
-101.50000154972076
20
88.706414210381368
10
-93.9615398645401
20
87.369229304375509
10
-93.9615398645401
20
88.087183939995626
10
-93.243589997291565
20
87.961537348809102
10
-93.243589997291565
20
93.076922404351095
10
-95.61282217502594
20
93.498713481011251
10
-96.205130219459534
20
93.014103877129415
10
-96.797437071800232
20
93.70512675005422
10
-99.651283621788025
20
94.207694041313985
0
LWPOLYLINE
5
111
100
AcDbEntity
8
0
100
AcDbPolyline
90
8
70
1
43
0.0
10
-101.50000154972076
20
86.498715388359884
10
-101.50000154972076
20
83.644873606743673
10
-100.36923229694368
20
82.307688700737813
10
-95.092309117317214
20
81.383330332817891
10
-93.243589997291579
20
82.899996745171407
10
-93.243589997291565
20
85.753848063530782
10
-94.374359250068665
20
87.091023432793477
10
-99.651283621788025
20
88.015381800713399
0
LWPOLYLINE
5
112
100
AcDbEntity
8
0
100
AcDbPolyline
90
8
70
1
43
0.0
10
-93.961539864540114
20
68.792311656060093
10
-93.961539864540114
20
69.510256754937046
10
-93.243589997291579
20
69.384619700493687
10
-93.243589997291579
20
74.500004756035679
10
-100.78205287456514
20
75.828206049980992
10
-100.78205287456514
20
75.110260951104038
10
-101.50000154972078
20
75.244872080864781
10
-101.50000154972078
20
70.129487025322788
0
LWPOLYLINE
5
113
100
AcDbEntity
8
0
100
AcDbPolyline
90
11
70
1
43
0.0
10
-93.9615398645401
20
94.279486643853048
10
-93.243589997291565
20
94.153849589409688
10
-93.243589997291565
20
99.26923464495168
10
-96.420513987541199
20
99.834610926689962
10
-97.012822031974792
20
99.341027247490743
10
-97.605128884315491
20
100.04102419573293
10
-100.78205287456512
20
100.59743593889699
10
-100.78205287456512
20
99.87949084002004
10
-101.50000154972076
20
100.01410196978078
10
-101.50000154972076
20
94.89871691423879
10
-93.9615398645401
20
93.561541544976095
0
LWPOLYLINE
5
114
100
AcDbEntity
8
0
100
AcDbPolyline
90
8
70
1
43
0.0
10
-93.961539864540114
20
53.356413352074497
10
-93.243589997291579
20
53.230771529259556
10
-93.243589997291579
20
55.923079955162876
10
-100.78205287456514
20
57.25128363329398
10
-100.78205287456514
20
56.533336150231236
10
-101.50000154972078
20
56.667949664177769
10
-101.50000154972078
20
53.97564362246024
10
-93.961539864540114
20
52.638463484825962
0
LWPOLYLINE
5
115
100
AcDbEntity
8
0
100
AcDbPolyline
90
10
70
1
43
0.0
10
-93.243589997291593
20
37.489743935646885
10
-93.243589997291593
20
40.343591677727574
10
-94.374359250068693
20
41.68076943117606
10
-100.78205287456515
20
42.802564608635777
10
-100.78205287456515
20
42.084614741387242
10
-101.50000154972079
20
42.219230639519566
10
-101.50000154972079
20
39.526923405709141
10
-97.461540102958708
20
38.808974730553501
10
-97.461540102958708
20
36.385898100914829
10
-95.092309117317228
20
35.973077523293369
0
ENDSEC
0
SECTION
2
OBJECTS
0
DICTIONARY
5
C
100
AcDbDictionary
3
ACAD_GROUP
350
D
3
ACAD_MLINESTYLE
350
17
0
DICTIONARY
5
D
100
AcDbDictionary
0
DICTIONARY
5
1A
330
C
100
AcDbDictionary
0
DICTIONARY
5
17
100
AcDbDictionary
0
ENDSEC
0
EOF
