0
SECTION
2
HEADER
9
$INSUNITS
70
4
9
$ACADVER
1
AC1014
9
$HANDSEED
5
FFFF
0
ENDSEC
0
SECTION
2
TABLES
0
TABLE
2
VPORT
5
8
100
AcDbSymbolTable
0
ENDTAB
0
TABLE
2
LTYPE
5
5
100
AcDbSymbolTable
0
LTYPE
5
14
100
AcDbSymbolTableRecord
100
AcDbLinetypeTableRecord
2
BYBLOCK
70
0
0
LTYPE
5
15
100
AcDbSymbolTableRecord
100
AcDbLinetypeTableRecord
2
BYLAYER
70
0
0
ENDTAB
0
TABLE
2
LAYER
5
2
100
AcDbSymbolTable
70
2
0
LAYER
5
50
100
AcDbSymbolTableRecord
100
AcDbLayerTableRecord
2
0
70
0
6
CONTINUOUS
0
ENDTAB
0
TABLE
2
STYLE
5
3
100
AcDbSymbolTable
70
1
0
STYLE
5
11
100
AcDbSymbolTableRecord
100
AcDbTextStyleTableRecord
2
STANDARD
70
0
0
ENDTAB
0
TABLE
2
VIEW
5
6
100
AcDbSymbolTable
70
0
0
ENDTAB
0
TABLE
2
UCS
5
7
100
AcDbSymbolTable
70
0
0
ENDTAB
0
TABLE
2
APPID
5
9
100
AcDbSymbolTable
70
2
0
APPID
5
12
100
AcDbSymbolTableRecord
100
AcDbRegAppTableRecord
2
ACAD
70
0
0
ENDTAB
0
TABLE
2
DIMSTYLE
5
A
100
AcDbSymbolTable
70
1
0
ENDTAB
0
TABLE
2
BLOCK_RECORD
5
1
100
AcDbSymbolTable
70
1
0
BLOCK_RECORD
5
1F
100
AcDbSymbolTableRecord
100
AcDbBlockTableRecord
2
*MODEL_SPACE
0
BLOCK_RECORD
5
1B
100
AcDbSymbolTableRecord
100
AcDbBlockTableRecord
2
*PAPER_SPACE
0
ENDTAB
0
ENDSEC
0
SECTION
2
BLOCKS
0
BLOCK
5
20
100
AcDbEntity
100
AcDbBlockBegin
2
*MODEL_SPACE
0
ENDBLK
5
21
100
AcDbEntity
100
AcDbBlockEnd
0
BLOCK
5
1C
100
AcDbEntity
100
AcDbBlockBegin
2
*PAPER_SPACE
0
ENDBLK
5
1D
100
AcDbEntity
100
AcDbBlockEnd
0
ENDSEC
0
SECTION
2
ENTITIES
0
LWPOLYLINE
5
100
100
AcDbEntity
8
0
100
AcDbPolyline
90
4
70
1
43
0.0
10
-86
20
110
10
-86.000000000000028
20
20.171796376588222
10
-110
20
20.17179637658824
10
-110
20
110
0
LWPOLYLINE
5
101
100
AcDbEntity
8
0
100
AcDbPolyline
90
4
70
1
43
0.0
10
-86
20
95
10
-86
20
35
10
-84
20
35
10
-84
20
95
0
LINE
5
102
100
AcDbEntity
8
0
100
AcDbLine
10
-69.249999999999986
20
110
30
0
11
-110
21
110
31
0
0
LINE
5
103
100
AcDbEntity
8
0
100
AcDbLine
10
-110
20
110
30
0
11
-110
21
-10
31
0
0
LINE
5
104
100
AcDbEntity
8
0
100
AcDbLine
10
-110
20
-10
30
0
11
10
21
-9.9999999999999982
31
0
0
LINE
5
105
100
AcDbEntity
8
0
100
AcDbLine
10
10
20
-9.9999999999999982
30
0
11
10.000000000000004
21
33.749999999999993
31
0
0
LWPOLYLINE
5
106
100
AcDbEntity
8
0
100
AcDbPolyline
90
4
70
1
43
0.0
10
-96.115385890007047
20
32.922777640404576
10
-96.115385890007047
20
32.109336363854283
10
-99.346155524253874
20
32.670093285622471
10
-99.346155524253874
20
33.49110673624503
0
LWPOLYLINE
5
107
100
AcDbEntity
8
0
100
AcDbPolyline
90
6
70
1
43
0.0
10
-100.96154034137729
20
34.5820517416619
10
-100.96154034137729
20
31.351283299507973
10
-94.500001072883634
20
30.211538779320595
10
-94.500001072883634
20
33.442167746605747
10
-95.307553410530119
20
34.393450724663609
10
-100.15384733676913
20
35.246154772820347
0
LWPOLYLINE
5
108
100
AcDbEntity
8
0
100
AcDbPolyline
90
8
70
1
43
0.0
10
-93.961539864540129
20
30.292309033455727
10
-93.961539864540129
20
29.574359762253639
10
-101.50000154972079
20
30.911539303841469
10
-101.50000154972079
20
34.896153914513462
10
-99.651283621788053
20
36.412820326866978
10
-94.374359250068693
20
35.488461958947056
10
-93.243589997291593
20
34.151281821312779
10
-93.243589997291593
20
30.166667210640785
0
LWPOLYLINE
5
109
100
AcDbEntity
8
0
100
AcDbPolyline
90
10
70
1
43
0.0
10
-96.923077702522306
20
38.448037612023228
10
-96.923077702522306
20
36.834756838860386
10
-95.307694077491789
20
36.547436224999302
10
-94.500001072883634
20
37.211539256157749
10
-94.500001072883634
20
39.634615885796421
10
-95.307694077491789
20
40.585896479668492
10
-100.96154034137729
20
41.582052218499051
10
-100.96154034137729
20
39.969050395073765
10
-96.115385890007047
20
39.115085112633579
10
-96.115385890007047
20
38.304447638573521
0
LWPOLYLINE
5
110
100
AcDbEntity
8
0
100
AcDbPolyline
90
10
70
1
43
0.0
10
-93.243589997291593
20
37.489743935646885
10
-95.092309117317228
20
35.973077523293369
10
-97.461540102958708
20
36.385898100914829
10
-97.461540102958708
20
38.808974730553501
10
-101.50000154972079
20
39.526923405709141
10
-101.50000154972079
20
42.219230639519566
10
-100.78205287456515
20
42.084614741387242
10
-100.78205287456515
20
42.802564608635777
10
-94.374359250068693
20
41.68076943117606
10
-93.243589997291593
20
40.343591677727574
0
LWPOLYLINE
5
111
100
AcDbEntity
8
0
100
AcDbPolyline
90
4
70
1
43
0.0
10
-99.346155524253859
20
50.364021765770786
10
-97.730770707130446
20
50.072216498436802
10
-97.730770707130446
20
49.257091986718052
10
-99.346155524253859
20
49.551143157067173
0
LWPOLYLINE
5
112
100
AcDbEntity
8
0
100
AcDbPolyline
90
8
70
1
43
0.0
10
-96.115385890007033
20
50.602964865746372
10
-96.923218369483962
20
51.552705275597447
10
-100.15384733676912
20
52.117948042931431
10
-100.96154034137727
20
51.453847395958775
10
-100.96154034137729
20
48.223077761711949
10
-94.50000107288362
20
47.083334433617466
10
-94.50000107288362
20
48.696333872856968
10
-96.115385890007033
20
48.99024676043021
0
LWPOLYLINE
5
113
100
AcDbEntity
8
0
100
AcDbPolyline
90
10
70
1
43
0.0
10
-101.50000154972078
20
51.767949568810337
10
-99.651283621788039
20
53.284615981163853
10
-95.989745259284987
20
52.638461100640171
10
-94.858976006507888
20
51.310257422509068
10
-94.858976006507888
20
50.017950045647495
10
-93.243589997291593
20
49.730770098748081
10
-93.243589997291593
20
47.038461672844761
10
-93.961539864540129
20
47.164103495659703
10
-93.961539864540114
20
46.446153628411167
10
-101.50000154972078
20
47.783333766045445
0
LWPOLYLINE
5
114
100
AcDbEntity
8
0
100
AcDbPolyline
90
4
70
1
43
0.0
10
-100.96154034137727
20
56.028387057366245
10
-100.96154034137727
20
54.415387618126744
10
-94.50000107288362
20
53.27564190584647
10
-94.50000107288362
20
54.888643729271763
0
LWPOLYLINE
5
115
100
AcDbEntity
8
0
100
AcDbPolyline
90
8
70
1
43
0.0
10
-93.961539864540114
20
53.356413352074497
10
-93.961539864540114
20
52.638463484825962
10
-101.50000154972078
20
53.97564362246024
10
-101.50000154972078
20
56.667949664177769
10
-100.78205287456514
20
56.533336150231236
10
-100.78205287456514
20
57.25128363329398
10
-93.243589997291579
20
55.923079955162876
10
-93.243589997291579
20
53.230771529259556
0
LWPOLYLINE
5
116
100
AcDbEntity
8
0
100
AcDbPolyline
90
8
70
1
43
0.0
10
-100.96154034137727
20
58.184616076531285
10
-99.346155524253859
20
57.89743612963187
10
-99.346155524253859
20
59.145013796868199
10
-94.50000107288362
20
58.292309748711453
10
-94.50000107288362
20
59.905168520989285
10
-99.346155524253859
20
60.757872569146024
10
-99.346155524253859
20
61.935479151787625
10
-100.96154034137727
20
62.223078715386265
0
LWPOLYLINE
5
117
100
AcDbEntity
8
0
100
AcDbPolyline
90
14
70
1
43
0.0
10
-101.50000154972078
20
57.744872080864774
10
-101.50000154972078
20
62.860257136406766
10
-100.78205287456514
20
62.725641238274441
10
-100.78205287456514
20
63.443591105522977
10
-98.089745640754714
20
62.976920115532742
10
-98.089745640754714
20
61.80128287035452
10
-93.243589997291579
20
60.939747798027867
10
-93.243589997291579
20
58.247436987938755
10
-93.961539864540114
20
58.373078810753697
10
-93.961539864540114
20
57.655128943505161
10
-98.089745640754714
20
58.391026961388462
10
-98.089745640754714
20
57.861539828362339
10
-98.807693123817458
20
57.98717926699149
10
-98.807693123817458
20
57.269231783928745
0
LWPOLYLINE
5
118
100
AcDbEntity
8
0
100
AcDbPolyline
90
16
70
1
43
0.0
10
-99.346155524253859
20
66.51674936968314
10
-98.538462519645705
20
66.374699580254429
10
-98.538462519645705
20
67.978445994438999
10
-100.15384733676912
20
68.271796214165562
10
-100.96154034137727
20
67.607695567192906
10
-100.96154034137727
20
65.184757220330113
10
-100.15398800373079
20
64.233476626458042
10
-95.307694077491774
20
63.380772578301297
10
-94.50000107288362
20
64.04487322527396
10
-94.50000107288362
20
66.467811572136753
10
-95.307553410530105
20
67.419092166008824
10
-96.923077702522292
20
67.703468310418003
10
-96.923077702522292
20
66.090609538140171
10
-96.115385890007033
20
65.94855974871146
10
-96.115385890007033
20
65.135819422783726
10
-99.346155524253859
20
65.704152094902867
0
LWPOLYLINE
5
119
100
AcDbEntity
8
0
100
AcDbPolyline
90
12
70
1
43
0.0
10
-99.651283621788039
20
69.438464152397984
10
-97.28205263614656
20
69.025642382683628
10
-97.28205263614656
20
68.307692515435093
10
-96.743591427803054
20
68.208977686943882
10
-96.743591427803054
20
68.926922785820835
10
-94.374359250068679
20
68.514105784478062
10
-93.243589997291579
20
67.176925646843785
10
-93.243589997291579
20
64.323079096855992
10
-95.092309117317214
20
62.806412684502469
10
-100.36923229694368
20
63.730771052422391
10
-101.50000154972078
20
65.067951190056675
10
-101.50000154972078
20
67.921797740044468
0
LWPOLYLINE
5
120
100
AcDbEntity
8
0
100
AcDbPolyline
90
12
70
1
43
0.0
10
-97.730770707130446
20
71.603247630181187
10
-100.96154034137727
20
72.182232844414585
10
-100.96154034137727
20
70.569235789360874
10
-94.50000107288362
20
69.429490077080601
10
-94.50000107288362
20
71.042487132134312
10
-96.115385890007033
20
71.336400019707554
10
-96.115385890007033
20
72.139889704766148
10
-94.50000107288362
20
71.854950892510288
10
-94.50000107288362
20
73.467947947563999
10
-100.96154034137727
20
74.607693659844273
10
-100.96154034137727
20
72.994696604790562
10
-97.730770707130446
20
72.424818980278843
0
LWPOLYLINE
5
121
100
AcDbEntity
8
0
100
AcDbPolyline
90
8
70
1
43
0.0
10
-93.961539864540114
20
68.792311656060093
10
-101.50000154972078
20
70.129487025322788
10
-101.50000154972078
20
75.244872080864781
10
-100.78205287456514
20
75.110260951104038
10
-100.78205287456514
20
75.828206049980992
10
-93.243589997291579
20
74.500004756035679
10
-93.243589997291579
20
69.384619700493687
10
-93.961539864540114
20
69.510256754937046
0
LWPOLYLINE
5
122
100
AcDbEntity
8
0
100
AcDbPolyline
90
14
70
1
43
0.0
10
-96.923077702522292
20
79.282357203545445
10
-98.538462519645705
20
79.56153582293021
10
-98.538462519645705
20
77.946297633232945
10
-99.346155524253859
20
78.088623988213399
10
-99.346155524253859
20
80.51268290239797
10
-100.96154034137727
20
80.79999636370168
10
-100.96154034137727
20
77.569233882012242
10
-100.15384733676912
20
76.617953288140171
10
-98.535938858985915
20
76.332871424736851
10
-97.727544903755202
20
76.994873988213413
10
-96.919152140617385
20
76.048075663628453
10
-94.50000107288362
20
75.621792780938023
10
-94.50000107288362
20
77.234799372734898
10
-96.923077702522292
20
77.661635386528843
0
LWPOLYLINE
5
123
100
AcDbEntity
8
0
100
AcDbPolyline
90
16
70
1
43
0.0
10
-101.50000154972078
20
77.452561366143087
10
-101.50000154972078
20
81.437184321465352
10
-100.78205287456514
20
81.302563654961446
10
-100.78205287456514
20
82.020518290581563
10
-98.089745640754714
20
81.553847300591329
10
-98.089745640754714
20
80.746151911797384
10
-95.666667819023147
20
80.315386759819845
10
-95.666667819023147
20
78.700005518975132
10
-93.243589997291579
20
78.269230830254429
10
-93.243589997291579
20
75.576922404351109
10
-93.961539864540114
20
75.702568995537632
10
-93.961539864540114
20
74.984614359917515
10
-97.138462662696853
20
75.55000017839896
10
-97.730770707130446
20
76.241023051323765
10
-98.32307875156404
20
75.756413447441929
10
-100.36923229694368
20
76.115385996880406
0
LWPOLYLINE
5
124
100
AcDbEntity
8
0
100
AcDbPolyline
90
4
70
1
43
0.0
10
-99.346155524253845
20
84.281069743218282
10
-99.346155524253845
20
85.093667017998555
10
-96.115385890007033
20
84.525343882622579
10
-96.115385890007033
20
83.712737071099141
0
LWPOLYLINE
5
125
100
AcDbEntity
8
0
100
AcDbPolyline
90
8
70
1
43
0.0
10
-94.500001072883606
20
85.044733988823751
10
-95.30755341053009
20
85.996014582695821
10
-100.1538473367691
20
86.848713862480977
10
-100.96154034137727
20
86.184613215508321
10
-100.96154034137727
20
83.76167963701711
10
-100.15398800373079
20
82.81039904314504
10
-95.30769407749176
20
81.95769022661672
10
-94.500001072883606
20
82.621790873589376
0
LWPOLYLINE
5
126
100
AcDbEntity
8
0
100
AcDbPolyline
90
8
70
1
43
0.0
10
-101.50000154972076
20
86.498715388359884
10
-99.651283621788025
20
88.015381800713399
10
-94.374359250068665
20
87.091023432793477
10
-93.243589997291565
20
85.753848063530782
10
-93.243589997291579
20
82.899996745171407
10
-95.092309117317214
20
81.383330332817891
10
-100.36923229694368
20
82.307688700737813
10
-101.50000154972076
20
83.644873606743673
0
LWPOLYLINE
5
127
100
AcDbEntity
8
0
100
AcDbPolyline
90
4
70
1
43
0.0
10
-99.346155524253845
20
91.28569315630422
10
-97.730770707130432
20
90.991923319878438
10
-97.730770707130432
20
90.180165278496602
10
-99.346155524253845
20
90.474221217217305
0
LWPOLYLINE
5
128
100
AcDbEntity
8
0
100
AcDbPolyline
90
12
70
1
43
0.0
10
-96.926303505897522
20
91.667944895806173
10
-97.734697461128235
20
92.614743220391134
10
-100.154829621315
20
93.041026103081563
10
-100.96154034137726
20
92.376925456108907
10
-100.96154034137726
20
89.14615343767629
10
-94.500001072883606
20
88.006407725396016
10
-94.500001072883606
20
89.619414317192891
10
-96.115385890007019
20
89.91331766802297
10
-96.115385890007019
20
90.716387736382345
10
-94.500001072883606
20
90.431735026421407
10
-94.500001072883606
20
92.044875132622579
10
-96.117909550666809
20
92.329947459282735
0
LWPOLYLINE
5
129
100
AcDbEntity
8
0
100
AcDbPolyline
90
10
70
1
43
0.0
10
-101.50000154972076
20
92.69102762896047
10
-99.651283621788025
20
94.207694041313985
10
-96.797437071800232
20
93.70512675005422
10
-96.205130219459534
20
93.014103877129415
10
-95.61282217502594
20
93.498713481011251
10
-93.243589997291565
20
93.076922404351095
10
-93.243589997291565
20
87.961537348809102
10
-93.9615398645401
20
88.087183939995626
10
-93.9615398645401
20
87.369229304375509
10
-101.50000154972076
20
88.706414210381368
0
LWPOLYLINE
5
130
100
AcDbEntity
8
0
100
AcDbPolyline
90
15
70
1
43
0.0
10
-100.96154034137726
20
96.951462733330587
10
-100.96154034137726
20
95.338465678276876
10
-94.500001072883606
20
94.198719965996602
10
-94.500001072883606
20
95.811717021050313
10
-96.923077702522278
20
96.239125239434102
10
-96.923077702522278
20
97.051579463066915
10
-94.500001072883606
20
96.62418078142629
10
-94.500001072883606
20
98.237177836480001
10
-96.926444172859192
20
98.66514872271047
10
-97.734135985374451
20
97.994868266167501
10
-98.541688323020935
20
98.949944483818868
10
-100.96154034137726
20
99.376923548760274
10
-100.96154034137726
20
97.763926493706563
10
-98.538462519645691
20
97.336518275322774
10
-98.538462519645691
20
96.524054514946798
0
LWPOLYLINE
5
131
100
AcDbEntity
8
0
100
AcDbPolyline
90
11
70
1
43
0.0
10
-93.9615398645401
20
94.279486643853048
10
-93.9615398645401
20
93.561541544976095
10
-101.50000154972076
20
94.89871691423879
10
-101.50000154972076
20
100.01410196978078
10
-100.78205287456512
20
99.87949084002004
10
-100.78205287456512
20
100.59743593889699
10
-97.605128884315491
20
100.04102419573293
10
-97.012822031974792
20
99.341027247490743
10
-96.420513987541199
20
99.834610926689962
10
-93.243589997291565
20
99.26923464495168
10
-93.243589997291565
20
94.153849589409688
0
ENDSEC
0
SECTION
2
OBJECTS
0
DICTIONARY
5
C
100
AcDbDictionary
3
ACAD_GROUP
350
D
3
ACAD_MLINESTYLE
350
17
0
DICTIONARY
5
D
100
AcDbDictionary
0
DICTIONARY
5
1A
330
C
100
AcDbDictionary
0
DICTIONARY
5
17
100
AcDbDictionary
0
ENDSEC
0
EOF
